<svg xmlns="http://www.w3.org/2000/svg" xmlns:xlink="http://www.w3.org/1999/xlink" width="500" zoomAndPan="magnify" viewBox="0 0 375 374.999991" height="500" preserveAspectRatio="xMidYMid meet" version="1.2"><defs><clipPath id="7a556d3844"><path d="M 32.300781 138.3125 L 186.78125 138.3125 L 186.78125 181.0625 L 32.300781 181.0625 Z M 32.300781 138.3125 "/></clipPath><clipPath id="8fa8260cb8"><path d="M 49.511719 138.3125 L 169.570312 138.3125 C 174.136719 138.3125 178.511719 140.117188 181.742188 143.324219 C 184.96875 146.53125 186.78125 150.882812 186.78125 155.421875 L 186.78125 163.957031 C 186.78125 168.496094 184.96875 172.84375 181.742188 176.054688 C 178.511719 179.261719 174.136719 181.0625 169.570312 181.0625 L 49.511719 181.0625 C 44.945312 181.0625 40.570312 179.261719 37.339844 176.054688 C 34.113281 172.84375 32.300781 168.496094 32.300781 163.957031 L 32.300781 155.421875 C 32.300781 150.882812 34.113281 146.53125 37.339844 143.324219 C 40.570312 140.117188 44.945312 138.3125 49.511719 138.3125 Z M 49.511719 138.3125 "/></clipPath></defs><g id="2ce55fba1b"><rect x="0" width="375" y="0" height="374.999991" style="fill:#ffffff;fill-opacity:1;stroke:none;"/><rect x="0" width="375" y="0" height="374.999991" style="fill:#fffbed;fill-opacity:1;stroke:none;"/><g clip-rule="nonzero" clip-path="url(#7a556d3844)"><g clip-rule="nonzero" clip-path="url(#8fa8260cb8)"><path style="fill:none;stroke-width:10;stroke-linecap:butt;stroke-linejoin:miter;stroke:#000000;stroke-opacity:1;stroke-miterlimit:4;" d="M 22.995384 -0.00169344 L 183.3892 -0.00169344 C 189.489749 -0.00169344 195.334586 2.424345 199.650373 6.735552 C 203.96094 11.046759 206.382373 16.896558 206.382373 22.998412 L 206.382373 34.472209 C 206.382373 40.574064 203.96094 46.418611 199.650373 50.73507 C 195.334586 55.046277 189.489749 57.467064 183.3892 57.467064 L 22.995384 57.467064 C 16.894835 57.467064 11.049998 55.046277 6.734212 50.73507 C 2.423644 46.418611 0.00221159 40.574064 0.00221159 34.472209 L 0.00221159 22.998412 C 0.00221159 16.896558 2.423644 11.046759 6.734212 6.735552 C 11.049998 2.424345 16.894835 -0.00169344 22.995384 -0.00169344 Z M 22.995384 -0.00169344 " transform="matrix(0.748524,0,0,0.743882,32.299126,138.31376)"/></g></g><g style="fill:#000000;fill-opacity:1;"><g transform="translate(187.106901, 181.419053)"><path style="stroke:none" d="M 30.296875 -43.765625 C 35.742188 -43.765625 40.078125 -42.179688 43.296875 -39.015625 C 46.523438 -35.847656 48.140625 -31.238281 48.140625 -25.1875 L 48.140625 0 L 42.265625 0 L 42.265625 -24.609375 C 42.265625 -29.117188 41.132812 -32.554688 38.875 -34.921875 C 36.625 -37.285156 33.410156 -38.46875 29.234375 -38.46875 C 24.546875 -38.46875 20.835938 -37.078125 18.109375 -34.296875 C 15.390625 -31.523438 14.03125 -27.6875 14.03125 -22.78125 L 14.03125 0 L 8.171875 0 L 8.171875 -43.421875 L 13.78125 -43.421875 L 13.78125 -35.421875 C 15.382812 -38.054688 17.601562 -40.101562 20.4375 -41.5625 C 23.269531 -43.03125 26.554688 -43.765625 30.296875 -43.765625 Z M 30.296875 -43.765625 "/></g></g><g style="fill:#000000;fill-opacity:1;"><g transform="translate(243.005762, 181.419053)"><path style="stroke:none" d="M 45.984375 -19.890625 L 9.65625 -19.890625 C 9.988281 -15.378906 11.722656 -11.734375 14.859375 -8.953125 C 17.992188 -6.171875 21.957031 -4.78125 26.75 -4.78125 C 29.445312 -4.78125 31.921875 -5.257812 34.171875 -6.21875 C 36.429688 -7.1875 38.390625 -8.609375 40.046875 -10.484375 L 43.34375 -6.6875 C 41.414062 -4.375 39.003906 -2.613281 36.109375 -1.40625 C 33.222656 -0.195312 30.046875 0.40625 26.578125 0.40625 C 22.117188 0.40625 18.171875 -0.539062 14.734375 -2.4375 C 11.296875 -4.332031 8.613281 -6.957031 6.6875 -10.3125 C 4.757812 -13.675781 3.796875 -17.476562 3.796875 -21.71875 C 3.796875 -25.957031 4.71875 -29.753906 6.5625 -33.109375 C 8.40625 -36.460938 10.9375 -39.078125 14.15625 -40.953125 C 17.375 -42.828125 20.992188 -43.765625 25.015625 -43.765625 C 29.035156 -43.765625 32.640625 -42.828125 35.828125 -40.953125 C 39.023438 -39.078125 41.53125 -36.472656 43.34375 -33.140625 C 45.15625 -29.816406 46.0625 -26.007812 46.0625 -21.71875 Z M 25.015625 -38.71875 C 20.828125 -38.71875 17.316406 -37.382812 14.484375 -34.71875 C 11.648438 -32.050781 10.039062 -28.566406 9.65625 -24.265625 L 40.453125 -24.265625 C 40.066406 -28.566406 38.457031 -32.050781 35.625 -34.71875 C 32.789062 -37.382812 29.253906 -38.71875 25.015625 -38.71875 Z M 25.015625 -38.71875 "/></g></g><g style="fill:#000000;fill-opacity:1;"><g transform="translate(141.068712, 249.314717)"><path style="stroke:none" d="M 26.171875 0.40625 C 21.878906 0.40625 18.039062 -0.523438 14.65625 -2.390625 C 11.269531 -4.265625 8.613281 -6.894531 6.6875 -10.28125 C 4.757812 -13.664062 3.796875 -17.476562 3.796875 -21.71875 C 3.796875 -25.957031 4.757812 -29.753906 6.6875 -33.109375 C 8.613281 -36.460938 11.269531 -39.078125 14.65625 -40.953125 C 18.039062 -42.828125 21.878906 -43.765625 26.171875 -43.765625 C 29.910156 -43.765625 33.253906 -43.03125 36.203125 -41.5625 C 39.148438 -40.101562 41.476562 -37.972656 43.1875 -35.171875 L 38.796875 -32.203125 C 37.367188 -34.347656 35.550781 -35.957031 33.34375 -37.03125 C 31.144531 -38.101562 28.753906 -38.640625 26.171875 -38.640625 C 23.035156 -38.640625 20.210938 -37.9375 17.703125 -36.53125 C 15.203125 -35.125 13.25 -33.128906 11.84375 -30.546875 C 10.445312 -27.960938 9.75 -25.019531 9.75 -21.71875 C 9.75 -18.351562 10.445312 -15.390625 11.84375 -12.828125 C 13.25 -10.273438 15.203125 -8.296875 17.703125 -6.890625 C 20.210938 -5.484375 23.035156 -4.78125 26.171875 -4.78125 C 28.753906 -4.78125 31.144531 -5.300781 33.34375 -6.34375 C 35.550781 -7.394531 37.367188 -8.992188 38.796875 -11.140625 L 43.1875 -8.171875 C 41.476562 -5.367188 39.132812 -3.238281 36.15625 -1.78125 C 33.1875 -0.320312 29.859375 0.40625 26.171875 0.40625 Z M 26.171875 0.40625 "/></g></g><g style="fill:#000000;fill-opacity:1;"><g transform="translate(187.554777, 249.314717)"><path style="stroke:none" d="M 30.296875 -43.765625 C 35.742188 -43.765625 40.078125 -42.179688 43.296875 -39.015625 C 46.523438 -35.847656 48.140625 -31.238281 48.140625 -25.1875 L 48.140625 0 L 42.265625 0 L 42.265625 -24.609375 C 42.265625 -29.117188 41.132812 -32.554688 38.875 -34.921875 C 36.625 -37.285156 33.410156 -38.46875 29.234375 -38.46875 C 24.546875 -38.46875 20.835938 -37.078125 18.109375 -34.296875 C 15.390625 -31.523438 14.03125 -27.6875 14.03125 -22.78125 L 14.03125 0 L 8.171875 0 L 8.171875 -61.265625 L 14.03125 -61.265625 L 14.03125 -35.828125 C 15.632812 -38.359375 17.835938 -40.3125 20.640625 -41.6875 C 23.441406 -43.070312 26.660156 -43.765625 30.296875 -43.765625 Z M 30.296875 -43.765625 "/></g></g><g style="fill:#000000;fill-opacity:1;"><g transform="translate(243.453639, 249.314717)"><path style="stroke:none" d="M 23.359375 -43.765625 C 29.035156 -43.765625 33.382812 -42.34375 36.40625 -39.5 C 39.4375 -36.664062 40.953125 -32.472656 40.953125 -26.921875 L 40.953125 0 L 35.34375 0 L 35.34375 -6.765625 C 34.019531 -4.515625 32.078125 -2.753906 29.515625 -1.484375 C 26.953125 -0.222656 23.910156 0.40625 20.390625 0.40625 C 15.546875 0.40625 11.691406 -0.742188 8.828125 -3.046875 C 5.972656 -5.359375 4.546875 -8.414062 4.546875 -12.21875 C 4.546875 -15.90625 5.878906 -18.875 8.546875 -21.125 C 11.210938 -23.382812 15.460938 -24.515625 21.296875 -24.515625 L 35.09375 -24.515625 L 35.09375 -27.15625 C 35.09375 -30.90625 34.046875 -33.753906 31.953125 -35.703125 C 29.859375 -37.660156 26.800781 -38.640625 22.78125 -38.640625 C 20.03125 -38.640625 17.390625 -38.1875 14.859375 -37.28125 C 12.328125 -36.375 10.15625 -35.117188 8.34375 -33.515625 L 5.703125 -37.890625 C 7.898438 -39.765625 10.539062 -41.210938 13.625 -42.234375 C 16.707031 -43.253906 19.953125 -43.765625 23.359375 -43.765625 Z M 21.296875 -4.203125 C 24.597656 -4.203125 27.429688 -4.957031 29.796875 -6.46875 C 32.171875 -7.988281 33.9375 -10.179688 35.09375 -13.046875 L 35.09375 -20.140625 L 21.46875 -20.140625 C 14.03125 -20.140625 10.3125 -17.554688 10.3125 -12.390625 C 10.3125 -9.859375 11.273438 -7.859375 13.203125 -6.390625 C 15.128906 -4.929688 17.828125 -4.203125 21.296875 -4.203125 Z M 21.296875 -4.203125 "/></g></g><path style="fill:none;stroke-width:4;stroke-linecap:butt;stroke-linejoin:miter;stroke:#000000;stroke-opacity:1;stroke-miterlimit:4;" d="M 0.00178289 1.999109 L 64.516345 1.999109 " transform="matrix(0,1.032107,-1.032107,0,306.01642,138.314566)"/><g style="fill:#000000;fill-opacity:1;"><g transform="translate(292.806254, 249.314703)"><path style="stroke:none" d="M 31.046875 -2.640625 C 29.941406 -1.648438 28.578125 -0.894531 26.953125 -0.375 C 25.328125 0.144531 23.632812 0.40625 21.875 0.40625 C 17.800781 0.40625 14.664062 -0.691406 12.46875 -2.890625 C 10.269531 -5.085938 9.171875 -8.195312 9.171875 -12.21875 L 9.171875 -38.46875 L 1.40625 -38.46875 L 1.40625 -43.421875 L 9.171875 -43.421875 L 9.171875 -52.921875 L 15.03125 -52.921875 L 15.03125 -43.421875 L 28.234375 -43.421875 L 28.234375 -38.46875 L 15.03125 -38.46875 L 15.03125 -12.546875 C 15.03125 -9.960938 15.675781 -7.992188 16.96875 -6.640625 C 18.257812 -5.296875 20.117188 -4.625 22.546875 -4.625 C 23.753906 -4.625 24.921875 -4.816406 26.046875 -5.203125 C 27.171875 -5.585938 28.148438 -6.140625 28.984375 -6.859375 Z M 31.046875 -2.640625 "/></g></g><path style="fill:none;stroke-width:4;stroke-linecap:butt;stroke-linejoin:miter;stroke:#000000;stroke-opacity:1;stroke-miterlimit:4;" d="M -0.00150979 2.001247 L 100.72538 2.001247 " transform="matrix(0,1.032107,-1.032107,0,308.07722,138.317965)"/></g></svg>